{"title":"Life.In.Flight.2008.DVDRip.XviD-SPRiNTER","uid":6019644,"size":733384137,"categoryP":"video","categoryS":"movies","magnet":"?xt=urn:btih:2a4b50151073cf2e530edc51eb9e1a219df52fdc&amp;dn=Life.In.Flight.2008.DVDRip.XviD-SPRiNTER&amp;tr=udp%3A%2F%2Ftracker.openbittorrent.com%3A80&amp;tr=udp%3A%2F%2Fopen.demonii.com%3A1337&amp;tr=udp%3A%2F%2Ftracker.coppersurfer.tk%3A6969&amp;tr=udp%3A%2F%2Fexodus.desync.com%3A6969","seeders":1,"leechers":1,"uploader":"TvTeam","files":5,"time":1291759074,"description":". \n  &lt;a href=&quot;\nhttp://www.torrentday.com/&quot; rel=&quot;nofollow&quot; target=&quot;_NEW&quot;&gt;\nhttp://www.torrentday.com/&lt;/a&gt;        :     The Hottest Private Tracker On The Net!!!\n\n\n               www . TorrentDay . Com \n(((((((((((((= Enjoy No RAR releases =))))))))))))))))))))\n\n\n...................................NFO:....................................\n\n.\n                                                     \n                                                   \n                                                         \n                                                          \n                                                           \n                                                          \n                                                          \n                                                          \n                                                           \n                                                         \n                                                          \n                                                        \n                                                      \n                                     \n                                                 \n                                                   \n                                             \n                                              \n                                                     \n                                                      \n                                                      \n                                                      \n                                                    \n                                                     \n                                                   \n                                                     \n                                                     \n                                                      \n                                                     \n                                                      \n                                                    \n                 ARTiCHOKE                        \n                                                \n                      \n                                                        \n                                                      \n                                                      \n                                               \n                                          \n                                                   \n                                            \n                                                    \n                                                       \n                                                        \n                                                      \n                                                \n                                                        \n                                                 \n                                              \n                                                  \n                                                \n                                                  \n                                        \n\n      \n                                \n      SPRiNTER proudly presents...     \n                                \n      \n \n Life.In.Flight.2008.DVDRip.XviD-SPRiNTER &lt;a href=&quot; http://www.imdb.com/title/tt0910915/&quot; rel=&quot;nofollow&quot; target=&quot;_NEW&quot;&gt; http://www.imdb.com/title/tt0910915/&lt;/a&gt;\n Subtitles: English | Spanish\n\n Date: 2010.12\n\n Director: Tracey Hecht\n Plot: While collaborating with an urban designer (Collins), an architect (Wilson) begins to second guess the perfect life he has constructed for himself and his family\n Genre: Drama\n\n Cast\n\n\tScott Abbondanzo ...\tBoy playing soccer\n\tConor Carroll\t ...\tAaron\n\tLynn Collins\t ...\tKate\n\tMemory Contento\t ...\tBetsey\n\tJames Cronin\t ...\tDriver\n\n      \n                 \n      Release notes     \n                 \n      \n\n Enjoy!\n\n\n      \n           \n     Greetings    \n           \n      \n\n\nNTX aAF FiCO HNR CiNEFiLE AEN HUMANiSM MOViERUSH\n\n\n      \n           \n      Details     \n           \n      \n\n\nFormat                           : AVI\nFormat/Info                      : Audio Video Interleave\nFile size                        : 699 MiB\nDuration                         : 1h 17mn\nOverall bit rate                 : 1 261 Kbps\nWriting application              : VirtualDubMod 1.5.10.2 (build 2540/release)\nWriting library                  : VirtualDubMod build 2540/release\n\nVideo\nID                               : 0\nFormat                           : MPEG-4 Visual\nFormat profile                   : Advanced Simple@L5\nFormat settings, BVOP            : Yes\nFormat settings, QPel            : No\nFormat settings, GMC             : No warppoints\nFormat settings, Matrix          : Default (H.263)\nCodec ID                         : XVID\nCodec ID/Hint                    : XviD\nDuration                         : 1h 17mn\nBit rate                         : 804 Kbps\nWidth                            : 576 pixels\nHeight                           : 240 pixels\nDisplay aspect ratio             : 2.40:1\nFrame rate                       : 23.976 fps\nColor space                      : YUV\nChroma subsampling               : 4:2:0\nBit depth                        : 8 bits\nScan type                        : Progressive\nBits/(Pixel*Frame)               : 0.242\nStream size                      : 446 MiB (64%)\nWriting library                  : XviD 1.1.2 (UTC 2006-11-01)\n\nAudio\nID                               : 1\nFormat                           : AC-3\nFormat/Info                      : Audio Coding 3\nMode extension                   : CM (complete main)\nCodec ID                         : 2000\nDuration                         : 1h 17mn\nBit rate mode                    : Constant\nBit rate                         : 448 Kbps\nChannel(s)                       : 6 channels\nChannel positions                : Front: L C R, Side: L R, LFE\nSampling rate                    : 48.0 KHz\nStream size                      : 248 MiB (36%)\nAlignment                        : Split accross interleaves\nInterleave, duration             : 42 ms (1.00 video frame)\nInterleave, preload duration     : 500 ms","torrent":{"xt":"urn:btih:2a4b50151073cf2e530edc51eb9e1a219df52fdc","amp;dn":"Life.In.Flight.2008.DVDRip.XviD-SPRiNTER","amp;tr":["udp%3A%2F%2Ftracker.openbittorrent.com%3A80","udp%3A%2F%2Fopen.demonii.com%3A1337","udp%3A%2F%2Ftracker.coppersurfer.tk%3A6969","udp%3A%2F%2Fexodus.desync.com%3A6969"],"infoHash":"2a4b50151073cf2e530edc51eb9e1a219df52fdc","infoHashBuffer":{"type":"Buffer","data":[42,75,80,21,16,115,207,46,83,14,220,81,235,158,26,33,157,245,47,220]},"announce":[],"urlList":[]}}